<svg xmlns="http://www.w3.org/2000/svg" xmlns:xlink="http://www.w3.org/1999/xlink" contentStyleType="text/css" data-diagram-type="DESCRIPTION" height="320px" preserveAspectRatio="none" style="width:486px;height:320px;background:#FFFFFF;" version="1.1" viewBox="0 0 486 320" width="486px" zoomAndPan="magnify"><?plantuml 1.2026.3?><defs/><g><!--cluster Sealbreak (Swift package)--><g class="cluster" data-qualified-name="Sealbreak .Swift package." data-source-line="20" id="ent0003"><path d="M16.5,83 L214.9141,83 A3.75,3.75 0 0 1 217.4141,85.5 L224.4141,105 L399.5,105 A2.5,2.5 0 0 1 402,107.5 L402,243.5 A2.5,2.5 0 0 1 399.5,246 L16.5,246 A2.5,2.5 0 0 1 14,243.5 L14,85.5 A2.5,2.5 0 0 1 16.5,83" fill="#FFFFFF" style="stroke:#64748B;stroke-width:1.5;"/><line style="stroke:#64748B;stroke-width:1.5;" x1="14" x2="224.4141" y1="105" y2="105"/><text fill="#111827" font-family="Helvetica" font-size="16" font-weight="700" lengthAdjust="spacing" textLength="197.4141" x="18" y="97.3203">Sealbreak (Swift package)</text></g><!--entity App--><g class="entity" data-qualified-name="App" data-source-line="19" id="ent0002"><rect fill="#F8FAFC" height="62" rx="2.5" ry="2.5" style="stroke:#374151;stroke-width:0.5;" width="112.0469" x="241" y="12"/><rect fill="#F8FAFC" height="10" style="stroke:#374151;stroke-width:0.5;" width="15" x="333.0469" y="17"/><rect fill="#F8FAFC" height="2" style="stroke:#374151;stroke-width:0.5;" width="4" x="331.0469" y="19"/><rect fill="#F8FAFC" height="2" style="stroke:#374151;stroke-width:0.5;" width="4" x="331.0469" y="23"/><text fill="#111827" font-family="Helvetica" font-size="16" lengthAdjust="spacing" textLength="72.0469" x="256" y="44.3203">Sealbreak</text><text fill="#111827" font-family="Helvetica" font-size="16" lengthAdjust="spacing" textLength="68.4688" x="256" y="60.3203">(iOS app)</text></g><!--entity TCA--><g class="entity" data-qualified-name="TCA" data-source-line="28" id="ent0010"><rect fill="#F8FAFC" height="46" rx="2.5" ry="2.5" style="stroke:#374151;stroke-width:0.5;" width="215.1953" x="263.5" y="274"/><rect fill="#F8FAFC" height="10" style="stroke:#374151;stroke-width:0.5;" width="15" x="458.6953" y="279"/><rect fill="#F8FAFC" height="2" style="stroke:#374151;stroke-width:0.5;" width="4" x="456.6953" y="281"/><rect fill="#F8FAFC" height="2" style="stroke:#374151;stroke-width:0.5;" width="4" x="456.6953" y="285"/><text fill="#111827" font-family="Helvetica" font-size="16" lengthAdjust="spacing" textLength="175.1953" x="278.5" y="306.3203">ComposableArchitecture</text></g><!--entity AppModule--><g class="entity" data-qualified-name="Sealbreak .Swift package..AppModule" data-source-line="21" id="ent0004"><rect fill="#F8FAFC" height="46" rx="2.5" ry="2.5" style="stroke:#374151;stroke-width:0.5;" width="192.9922" x="200.5" y="110"/><rect fill="#F8FAFC" height="10" style="stroke:#374151;stroke-width:0.5;" width="15" x="373.4922" y="115"/><rect fill="#F8FAFC" height="2" style="stroke:#374151;stroke-width:0.5;" width="4" x="371.4922" y="117"/><rect fill="#F8FAFC" height="2" style="stroke:#374151;stroke-width:0.5;" width="4" x="371.4922" y="121"/><text fill="#111827" font-family="Helvetica" font-size="16" lengthAdjust="spacing" textLength="152.9922" x="215.5" y="142.3203">SealbreakAppModule</text></g><!--entity Infrastructure--><g class="entity" data-qualified-name="Sealbreak .Swift package..Infrastructure" data-source-line="22" id="ent0005"><rect fill="#F8FAFC" height="46" rx="2.5" ry="2.5" style="stroke:#374151;stroke-width:0.5;" width="206.3047" x="22" y="192"/><rect fill="#F8FAFC" height="10" style="stroke:#374151;stroke-width:0.5;" width="15" x="208.3047" y="197"/><rect fill="#F8FAFC" height="2" style="stroke:#374151;stroke-width:0.5;" width="4" x="206.3047" y="199"/><rect fill="#F8FAFC" height="2" style="stroke:#374151;stroke-width:0.5;" width="4" x="206.3047" y="203"/><text fill="#111827" font-family="Helvetica" font-size="16" lengthAdjust="spacing" textLength="166.3047" x="37" y="224.3203">SealbreakInfrastructure</text></g><!--entity Core--><g class="entity" data-qualified-name="Sealbreak .Swift package..Core" data-source-line="23" id="ent0006"><rect fill="#F8FAFC" height="46" rx="2.5" ry="2.5" style="stroke:#374151;stroke-width:0.5;" width="146.7266" x="246.5" y="192"/><rect fill="#F8FAFC" height="10" style="stroke:#374151;stroke-width:0.5;" width="15" x="373.2266" y="197"/><rect fill="#F8FAFC" height="2" style="stroke:#374151;stroke-width:0.5;" width="4" x="371.2266" y="199"/><rect fill="#F8FAFC" height="2" style="stroke:#374151;stroke-width:0.5;" width="4" x="371.2266" y="203"/><text fill="#111827" font-family="Helvetica" font-size="16" lengthAdjust="spacing" textLength="106.7266" x="261.5" y="224.3203">SealbreakCore</text></g><g class="link" data-entity-1="ent0004" data-entity-2="ent0005" data-link-type="dependency" id="lnk7"><polygon fill="#374151" points="172.3002,191.9999,182.1476,191.8312,176.8338,189.8913,178.7738,184.5774,172.3002,191.9999" style="stroke:#374151;stroke-width:1;"/><path d="M249.5449,156.0721 C225.4815,167.2644 201.7821,178.2874 177.7405,189.4695" fill="none" style="stroke:#374151;stroke-width:1;stroke-dasharray:7,7;"/></g><g class="link" data-entity-1="ent0004" data-entity-2="ent0006" data-link-type="dependency" id="lnk8"><polygon fill="#374151" points="313.6276,191.835,314.9851,182.0802,312.246,187.0297,307.2965,184.2907,313.6276,191.835" style="stroke:#374151;stroke-width:1;"/><path d="M303.4068,156.2845 C306.5969,167.3804 308.7844,174.9891 311.9697,186.0686" fill="none" style="stroke:#374151;stroke-width:1;stroke-dasharray:7,7;"/></g><g class="link" data-entity-1="ent0005" data-entity-2="ent0006" data-link-type="dependency" id="lnk9"><polygon fill="#374151" points="246.4986,215,237.4986,211,241.4986,215,237.4986,219,246.4986,215" style="stroke:#374151;stroke-width:1;"/><path d="M228.2129,215 C234.3081,215 234.4034,215 240.4986,215" fill="none" style="stroke:#374151;stroke-width:1;stroke-dasharray:7,7;"/></g><g class="link" data-entity-1="ent0002" data-entity-2="ent0004" data-link-type="dependency" id="lnk11"><polygon fill="#374151" points="297,109.9961,301,100.9961,297,104.9961,293,100.9961,297,109.9961" style="stroke:#374151;stroke-width:1;"/><path d="M297,74.2846 C297,86.0179 297,93.197 297,103.9961" fill="none" style="stroke:#374151;stroke-width:1;stroke-dasharray:7,7;"/></g><g class="link" data-entity-1="ent0004" data-entity-2="ent0010" data-link-type="dependency" id="lnk12"><polygon fill="#374151" points="388.942,273.9469,397.3231,268.7741,391.7636,269.8191,390.7187,264.2596,388.942,273.9469" style="stroke:#374151;stroke-width:1;"/><path d="M362.7039,156.0803 C378.6458,164.7078 393.7477,176.3906 403,192 C415.2375,212.6457 409.7399,222.9658 403,246 C400.1058,255.8914 397.9757,260.7312 392.3279,268.9935" fill="none" style="stroke:#374151;stroke-width:1;stroke-dasharray:7,7;"/></g><g class="link" data-entity-1="ent0006" data-entity-2="ent0010" data-link-type="dependency" id="lnk13"><polygon fill="#374151" points="356.8698,273.835,355.4047,264.0958,354.1821,269.6189,348.6589,268.3962,356.8698,273.835" style="stroke:#374151;stroke-width:1;"/><path d="M334.2063,238.2845 C341.28,249.3804 346.5813,257.6962 353.6445,268.7757" fill="none" style="stroke:#374151;stroke-width:1;stroke-dasharray:7,7;"/></g><?plantuml-src TP11JuD048Nl_8gnlTHB4sfjUpAX94GFwW6FNWPOwARBpcOP9DNutmKf0fNUTlQz-URDt1YBMOwWy4GbGv4BHeqEam4cY8YPSaYa5J5BqavnbDgWnHnYoWrfeJdaan9GvcerK8i39bH9dK6AgX039SBuc5agTUAJ8WlLGV9GJqIAfUA0DBzWBk1Hg0_1CiPfJoW_1RYRWUXPIrNBdjzjr-wzEvKQlXo0_KMMUR0BlC1l5BA9i6CAG3Fm_EUwxcwrTRu7R5FJC1EJv7RB2-vclLtlzbUuVT9PA515Lk3nNI_aQmXepEqCi03F6AURshjW4LOovIvFRMqIJV7g_cTAIYKwMbjTSJ_fr6B1jeovj6tB-EjAdqzdT_EeFNzpOBby-8yOo-UUiGkMLcO7xkJHiVpcMM2aX6VZvkfzsZVVSshwBxTVTZolyJJGhlW1?></g></svg>
